<?xml version="1.0" encoding="utf-8"?>
<!-- Generator: Adobe Illustrator 25.2.3, SVG Export Plug-In . SVG Version: 6.00 Build 0)  -->
<svg version="1.1" id="Réteg_1" xmlns="http://www.w3.org/2000/svg" xmlns:xlink="http://www.w3.org/1999/xlink" x="0px" y="0px"
	 viewBox="0 0 411 411" style="enable-background:new 0 0 411 411;" xml:space="preserve">
<style type="text/css">
	.st0{fill:#1B2C4C;}
</style>
<g>
	<g>
		<path class="st0" d="M360.8,206.3c0-4.9-0.2-9.8-0.7-14.6c0-0.5-0.5-0.9-1-0.8l-1.4,0.1c-0.5,0.1-0.8,0.5-0.8,1
			c0.4,4.7,0.7,9.6,0.7,14.4c0,84.1-68.4,152.4-152.4,152.4c-84.1,0-152.4-68.4-152.4-152.4c0-39.6,15.1-77,42.5-105.6
			c27.1-28.2,63.4-44.8,102.4-46.7c0.5,0,0.9-0.4,0.8-0.9l-0.1-1.3c0-0.5-0.4-0.9-0.9-0.9C157.7,52.9,120.7,69.8,93,98.6
			c-27.9,29.1-43.3,67.3-43.3,107.7c0,85.8,69.8,155.6,155.6,155.6C291,361.9,360.8,292.1,360.8,206.3z"/>
		<path class="st0" d="M205.6,1.7c-54.5,0-105.7,21.2-144.2,59.7S1.7,151.1,1.7,205.5c0,41.9,12.6,82.2,36.5,116.4
			c0.3,0.4,0.8,0.5,1.3,0.2l1.1-0.8c0.4-0.3,0.5-0.8,0.2-1.2C17,286,4.6,245.9,4.8,204.2C5.1,150.6,27,99.2,65.4,61.8
			c37.7-36.8,87.5-57,140.3-57c53.2,0,104.2,21.2,141.8,58.8c38.1,38.1,59,88.8,58.8,142.6c-0.2,53.1-21.3,103.7-58.8,141.2
			c-37.9,37.9-88.3,58.8-141.9,58.8c-5.9,0-11.9-0.3-17.8-0.8c-0.5,0-0.9,0.3-1,0.8l-0.1,1.3c-0.1,0.5,0.3,0.9,0.8,1
			c6,0.5,12.1,0.8,18.1,0.8c54.4,0,105.6-21.2,144.1-59.7s59.7-89.7,59.7-144.1S388.2,99.9,349.7,61.4S260,1.7,205.6,1.7z"/>
		<path class="st0" d="M203.1,79c-0.2,0.1-0.4,0.1-0.6,0.2c-0.3,0.1-0.5,0.2-0.8,0.2c-1.8,0.6-3.4,1.8-4.4,3.3
			c-0.2,0.2-0.3,0.4-0.4,0.6c-0.2,0.4-0.6,0.7-1,0.7c-0.2,0-0.5,0.1-0.7,0.1s-0.5,0.1-0.7,0.1c-1.9,0.3-3.8,0.8-6.1,1.4
			c-8.9,2.5-17.1,7.2-23.9,13.6c-4.8,4.5-8.7,9.8-11.6,15.8c-0.1,0.2-0.2,0.4-0.3,0.6s-0.2,0.4-0.2,0.5c-0.2,0.3-0.2,0.7,0.1,1
			c0.2,0.3,0.4,0.5,0.6,0.7l0.6,0.7c0.8,0.9,1.8,2.1,2.6,3.5c0.7,1.1,1.5,2.4,2.2,4.1c2,4.2,3.5,8,4.6,11.7c0.5,1.7,1,3.4,1.4,5.1
			c0.2,0.8,0.4,1.5,0.6,2.3c0.2,1,0.5,2,0.8,3c0.2,1,0.5,2,0.8,3c0.1,0.3,0.2,0.5,0.7,0.5l5.1-0.6c1.1-0.2,2.1-0.2,3.1-0.3l2.6-0.2
			c1.1-0.1,2.2-0.2,3.4-0.2l3.9-0.2c1.7-0.1,3.3-0.2,4.8-0.2h0.2c1.4-0.1,2.8-0.1,4.2-0.1c4.3-0.1,8.7-0.2,12.9-0.1c1.3,0,2.6,0,4,0
			c1.8,0,3.6,0.1,5.3,0.1c0.9,0,1.8,0.1,2.7,0.1c0.4,0,0.7,0,1.1,0c0.4,0,0.7,0,1.1,0l4.2,0.2l4.4,0.3c0.8,0.1,1.5,0.2,2.3,0.2
			l4.9,0.5l4.5,0.6h0.2c0.2,0,0.4-0.1,0.5-0.2c0.1-0.1,0.2-0.3,0.2-0.4c0.2-0.8,0.4-1.5,0.6-2.3c0.2-0.8,0.4-1.5,0.6-2.3l0.1-0.3
			c0.1-0.6,0.3-1.2,0.5-1.8c0-0.2,0.1-0.4,0.2-0.6c0.1-0.2,0.1-0.4,0.2-0.6c0.8-3,1.7-6.1,2.7-9.1s2.2-5.8,3.6-8.5
			c1.6-3,3.3-5.6,5.3-7.9l0.1-0.2c0.5-0.4,0.5-1.1,0.3-1.6v-0.1c-7.7-16-22.9-27.6-40.5-31c-0.9-0.2-1.9-0.3-2.9-0.5h-0.1
			c-0.3,0-0.6-0.2-0.7-0.5l-0.1-0.1l0,0c0,0-0.1-0.1-0.1-0.2c-1.1-1.9-3-3.3-5.2-3.9c-0.2-0.1-0.4-0.1-0.7-0.2v-0.1
			c0-0.1-0.1-0.2-0.1-0.2c-0.1-1.1-0.1-2.1,0-3.1l0.1-0.2l0,0l0.1-0.1h0.2h1.3c0.2,0,0.4,0,0.5,0s0.3,0,0.5,0c0.3,0,0.5-0.3,0.5-0.5
			l0.1-0.4c0.1-0.6,0-1.1-0.1-1.6v-0.1c0-0.3-0.2-0.5-0.5-0.5c-0.2-0.1-0.4-0.1-0.6-0.1h-1.5c-0.2,0.1-0.5,0-0.7-0.1l-0.1-0.1v-0.2
			V69v-0.2l-0.1-0.1c-0.1-0.1-0.2-0.3-0.5-0.3h-2.1c-0.3,0-0.7,0.1-0.7,0.6v3.1v0.1c0,0.1,0,0.1-0.1,0.2l-0.1,0.1h-0.2h-1.3
			c-0.4,0-0.8,0-1.1,0.1c-0.2,0-0.5,0.3-0.5,0.5c-0.2,0.7-0.2,1.5,0,2.3c0.1,0.1,0.2,0.4,0.6,0.4h2.6c0.1,0,0.1,0,0.1,0v3.1
			C203.2,78.9,203.2,79,203.1,79z M201.6,107.7c0.7-0.6,1.6-1,2.5-1.2c0.3-0.1,0.6-0.1,0.9-0.1c0.6,0,1.2,0.1,1.8,0.2
			c0.8,0.2,1.5,0.6,2.1,1.1c1.3,1.2,2.3,2.8,2.6,4.4c0.2,0.8,0.2,1.7,0.2,2.5v14.1l-0.1,0.1h-12.8c0,0-0.1,0-0.1-0.1v-14.8
			c0-0.9,0.1-1.7,0.3-2.3C199.4,110.2,200.3,108.8,201.6,107.7z M200.8,96.2c0.5,0.2,1,0.4,1.7,0.6c1.8,0.5,3.9,0.4,5.8-0.3l0.7-0.2
			c-0.2,0.8-0.2,1.6-0.3,2.4c-0.1,1.2-0.2,2.3-0.4,3.5c0,0.5-0.1,0.9-0.2,1.5l-2.3-0.5c-0.3,0-0.6-0.1-0.8-0.1c-0.3,0-0.6,0-0.9,0.1
			l-1.9,0.4c-0.1,0-0.2,0.1-0.3,0.1l-0.1-0.1l-0.4-3.5c-0.1-1.2-0.2-2.4-0.4-3.6C200.9,96.4,200.9,96.3,200.8,96.2z M197.1,93.7
			C197.2,93.6,197.2,93.6,197.1,93.7c0.1,0,0.1,0,0.1,0.1l0.1,0.1c0,0,0,0.1,0,0.2c0.1,0.6,0.1,1.1,0.2,1.7c0.1,0.5,0.1,1.1,0.2,1.6
			c0.1,0.6,0.2,1.2,0.2,1.8s0.2,1.2,0.2,1.8l0.5,4.1c0.1,0.2,0,0.5-0.2,0.6l-0.1,0.1c-0.1,0.1-0.2,0.3-0.4,0.4
			c-1.5,1.7-2.5,3.8-2.7,6.2c-0.2,1.1-0.2,2.1-0.2,3.2v11.8v1.3l-2.2,0.1c0,0-0.1-0.1-0.1-0.4s0-0.5,0-0.9l-0.2-6.9
			c0-1.8-0.1-3.7-0.2-5.5c-0.1-1-0.2-1.8-0.4-2.7c-0.4-1.8-1.4-3.4-2.7-4.6c-0.7-0.7-1.5-1.3-2.4-1.7c-1.5-0.8-3.3-1.2-5.1-1
			c-2.4,0.2-4.6,1.3-6.1,3.2c-1.2,1.4-2.1,3-2.4,4.7c-0.2,1.2-0.2,2.2-0.2,3.1c0.1,1.1,0.2,2.2,0.5,3.3c0.7,3.6,1.4,7.2,2.2,10.8
			v0.1l0.1,0.1v0.1l0,0c0,0,0,0-0.1,0.1s-0.2,0.1-0.4,0.1l-1.5,0.2h-0.2c-0.2-0.2-0.2-0.5-0.3-0.9c-1-3.1-2.3-6.3-3.9-9.9l-0.8-1.5
			c-0.8-1.4-2.1-2.7-3.6-3.4l-0.3-0.1c-0.1,0-0.2-0.1-0.2-0.1s0,0,0.1-0.2c3.1-5,7.3-9.4,12.1-12.8s10.1-5.9,15.8-7.4
			C194,94.3,195.5,93.9,197.1,93.7z M189.9,128.4v0.8c0,0.1,0,0.1-0.1,0.1l-10.3,0.8c0,0,0,0-0.1-0.1c0-0.1,0-0.1-0.1-0.2
			c0-0.1,0-0.2-0.1-0.3l-0.3-1.6c-0.6-3-1.3-5.9-1.8-8.8c-0.1-0.5-0.2-0.9-0.2-1.3c-0.1-0.4-0.2-0.9-0.2-1.3
			c-0.4-2.2,0.4-4.5,2.1-6.2c0.4-0.5,0.8-0.8,1.4-1.1c1.2-0.7,2.7-0.9,4-0.5c2.4,0.6,4.3,2.5,5,5.1c0.1,0.5,0.2,1.2,0.2,1.8
			c0.1,2.2,0.2,4.4,0.2,7.6C189.6,124.2,189.7,126.3,189.9,128.4z M196.4,90.5L196.4,90.5L196.4,90.5L196.4,90.5z M157.7,114.1
			c7.6-13.2,20.5-22.7,35.3-25.9c0.7-0.2,1.4-0.3,2.2-0.5c0.2,0,0.3-0.1,0.5-0.1c0.1,0,0.3,0,0.4-0.1v0.2c0,0.8,0.1,1.7,0.2,2.3v0.4
			c-0.1,0-0.2,0-0.3,0.1c-0.2,0-0.3,0.1-0.4,0.1c-4.4,0.8-8.7,2.1-12.7,4c-6.3,3-11.8,7.1-16.3,12.2c-1.5,1.7-2.9,3.6-4.4,5.8
			c-0.2,0.3-0.4,0.8-0.6,1v0.1c0,0.1-0.2,0.1-0.3,0.1l-1-0.1l0,0C159.5,113.7,158.6,113.8,157.7,114.1
			C157.7,114.2,157.7,114.1,157.7,114.1z M165.7,132.7c-0.1,0-0.1,0-0.2,0.1s-0.2,0-0.3,0.1c0,0,0,0-0.1,0c0-0.1,0-0.1,0-0.1
			c0-0.1-0.1-0.2-0.1-0.3c-0.8-2.4-1.9-5-3.4-8c-1-2.1-2.4-4.3-3.9-6.5l-0.2-0.4l0,0c1.6-0.4,3-0.5,4.3-0.1c0.5,0.1,1,0.4,1.6,0.7
			c1.2,0.6,2.1,1.5,2.7,2.7c0.9,2,1.8,4,2.6,6.1c0.2,0.7,0.5,1.4,0.8,2.1c0.2,0.7,0.5,1.4,0.8,2.1c0.1,0.2,0.1,0.4,0.1,0.5
			c-0.1,0.1-0.3,0.1-0.4,0.2L165.7,132.7z M244.2,135.8l-0.2,0.7c-0.3,1-0.6,1.9-0.9,2.9c-0.2,0.6-0.4,1.2-0.5,1.8
			c-0.2,0.6-0.4,1.2-0.5,1.8l-1.5,4.8v0.1c-0.1,0.2-0.4,0.1-0.7,0.1l-7.4-0.8c-0.6,0-1.2-0.1-1.8-0.2c-0.6-0.1-1.2-0.1-1.8-0.2
			l-8.3-0.6l-0.8-0.1c-0.9,0-1.9-0.1-2.8-0.1c-1.9-0.1-3.8-0.1-5.7-0.1c-1.2,0-2.4,0-3.6,0c-1.2,0-2.4,0-3.6,0l0,0
			c-1.5,0-3,0.1-4.4,0.1c-1.5,0-3,0-4.4,0.1c-1.5,0-3,0.1-4.5,0.2l-4.8,0.2c-1.4,0.1-2.8,0.2-4.1,0.2l-6,0.5l-3.1,0.3l-2.8,0.2
			c-0.2,0-0.2,0-0.2-0.1c-0.1-0.2-0.2-0.6-0.2-0.9c-0.4-1.4-0.7-2.8-1.1-4.2c-0.5-1.9-1-3.8-1.5-5.8c-0.1-0.3-0.2-0.6-0.3-0.9
			c0,0,0,0,0-0.1l0.6-0.2c1.7-0.5,3.4-0.9,5.1-1.2c1.3-0.3,2.6-0.5,3.9-0.7c0.7-0.1,1.4-0.2,2.1-0.3c0.6-0.1,1.2-0.1,1.8-0.2
			c0.6-0.1,1.2-0.1,1.8-0.2c1.5-0.2,3.1-0.3,4.7-0.5c0.5,0,0.9-0.1,1.4-0.1s0.9,0,1.4-0.1c0.5,0,1-0.1,1.5-0.1s1.1,0,1.5-0.1
			c3.6-0.2,7.4-0.2,11.1-0.2c2.3,0,4.5,0.1,6.7,0.1c1.1,0,2.3,0.1,3.4,0.1c1.2,0,2.4,0.1,3.6,0.1c0.6,0,1.2,0.1,1.7,0.1l9.5,0.7
			c1.4,0.1,2.8,0.2,4.1,0.4c1.9,0.2,3.8,0.5,5.7,0.8h0.2c1.7,0.3,3.4,0.6,5,1c0.2,0,0.4,0.1,0.6,0.2c0.2,0.1,0.3,0.1,0.5,0.2
			C244.2,135.7,244.2,135.8,244.2,135.8z M230.8,129.9L230.8,129.9l-0.6,0.1c-0.5,0-0.9,0-1.4-0.1l-8.2-0.7h-0.2v-0.3
			c0-1.3,0-2.6,0.1-3.8c0-0.5,0.1-0.9,0.1-1.4c0-0.4,0-0.9,0.1-1.4l0,0c0.1-2.1,0.1-4.2,0.1-6.2c0-0.6,0.1-1.1,0.1-1.7v-0.2
			c0.1-0.7,0.3-1.3,0.6-1.9c0.7-1.2,1.6-2.2,2.7-2.9c2.4-1.5,5.6-1.1,7.4,0.9c0.9,1.1,1.5,2.3,1.8,3.6c0.2,1,0.2,1.8,0,2.7
			c-0.2,0.8-0.3,1.5-0.5,2.3c-0.1,0.8-0.3,1.5-0.5,2.2c-0.2,1.1-0.4,2.2-0.7,3.4c-0.2,1.1-0.5,2.2-0.7,3.4l-0.4,1.8
			C230.8,129.8,230.8,129.9,230.8,129.9z M252.6,117.6c-0.1,0.1-0.1,0.2-0.2,0.3c-1.2,1.7-2.4,3.7-3.5,5.9c-1.3,2.4-2.4,5.2-3.5,8.2
			c0,0.1-0.1,0.3-0.1,0.4s-0.1,0.3-0.1,0.4h-0.1H245l-4.8-1.2h-0.1H240l-0.1-0.1c0-0.1,0.1-0.1,0.1-0.2c0-0.1,0-0.1,0.1-0.2
			c1-2.9,2.2-6,3.8-9.7c0.1-0.3,0.3-0.6,0.4-0.8c0.1-0.1,0.1-0.2,0.2-0.3c0.6-1.1,1.4-1.8,2.4-2.3c1.4-0.7,2.9-1,4.3-0.9h0.1
			c0.5,0.1,1,0.2,1.5,0.3l0,0C252.6,117.5,252.6,117.6,252.6,117.6z M214,90.3c0-0.1,0.1-0.2,0.1-0.3c0.1-0.4,0.2-0.9,0.2-1.5
			c0-0.2,0-0.3,0-0.5s0-0.4,0-0.6h0.1c0.8,0.2,1.7,0.3,2.7,0.5c6.1,1.3,12.2,3.8,17.6,7.2c7.2,4.6,13.3,10.8,17.5,18.1
			c0.1,0.2,0.2,0.4,0.3,0.6c0.1,0.1,0.1,0.2,0.1,0.2v0.1l0,0c-0.8-0.2-1.7-0.3-2.6-0.3c-0.3,0-0.6,0-0.8,0h-0.4
			c-0.1,0-0.3,0-0.3-0.1v-0.1l-0.1-0.1c-7-11.2-18.4-19.4-31.2-22.4c-0.5-0.1-1-0.2-1.6-0.3c-0.5-0.1-1-0.2-1.5-0.3l-0.3-0.1
			C214,90.4,214,90.4,214,90.3z M211.1,105c0-0.2,0-0.3,0-0.5c0.2-1.4,0.3-2.8,0.5-4.1l0.5-3.5c0-0.3,0.1-0.7,0.1-1s0.1-0.7,0.1-1
			c0-0.2,0.1-0.4,0.1-0.6s0-0.3,0.1-0.5c0.3,0,0.7,0.1,1.3,0.2c1.6,0.3,3,0.6,4.4,1c7,2,13.2,5.4,18.6,10.3c2.9,2.7,5.2,5.3,7.1,8.1
			c0.2,0.3,0.5,0.7,0.6,1l0.2,0.3c0.1,0.2,0.2,0.3,0.2,0.3c0,0.1-0.2,0.2-0.4,0.3l-0.2,0.1c-1.7,1-3,2.4-3.8,4.1
			c-0.5,1-0.9,1.9-1.3,2.9c-1.1,2.4-2,5-2.9,7.5c-0.1,0.3-0.2,0.7-0.4,1l0,0l-2.1-0.3l0,0c0-0.2,0.1-0.4,0.1-0.7
			c0.1-0.3,0.1-0.7,0.2-1c0.7-3,1.3-6.2,1.9-9.3l0.5-2.8c0.4-2.5-0.1-5.1-1.5-7.2c-0.6-0.9-1.2-1.6-1.8-2.1c-1.3-1.2-3-2-4.8-2.2
			c-1.9-0.2-3.8,0.1-5.5,1.1c-2.5,1.3-4.4,3.7-5.1,6.5c-0.2,0.6-0.3,1.2-0.3,1.7c0,0.8-0.1,1.5-0.1,2.3s0,1.5-0.1,2.2l-0.2,7.3
			c0,0.4,0,0.7,0,1.1s0,0.6,0,1c0,0.1,0,0.5-0.1,0.6h-0.2l-1.9-0.1c0,0-0.1,0-0.1-0.1V121c0-2.2,0-4.5-0.2-6.8
			c0-1.2-0.2-2.3-0.5-3.4c-0.6-1.9-1.4-3.4-2.7-4.6l-0.1-0.3c-0.1-0.1-0.2-0.3-0.2-0.5C211.1,105.3,211.1,105.2,211.1,105z
			 M204.9,82.3c0.9,0,1.8,0.2,2.5,0.5c0.1,0,0.1,0.1,0.2,0.1c0.1,0.1,0.3,0.1,0.5,0.2c2.8,1.7,3.6,5.2,2,7.9
			c-0.6,1.1-1.5,1.8-2.6,2.3c-0.8,0.4-1.7,0.6-2.6,0.6c-0.5,0-0.9,0-1.3-0.2c-1.3-0.4-2.4-1.2-3.3-2.3c-0.5-0.8-0.7-1.4-0.9-2
			c-0.1-0.5-0.2-1-0.2-1.4C199.2,84.8,201.7,82.3,204.9,82.3z"/>
		<path class="st0" d="M191.8,316.7c-0.2,0-0.4-0.1-0.6-0.1c-0.2,0-0.4-0.1-0.5-0.1l-1.8-0.4h-0.3c-0.2,0-0.5,0.2-0.5,0.5v0.1v0.1
			c0.3,0.5,0.6,0.8,1,1.1c0.6,0.5,1.2,0.8,1.9,1c1.3,0.6,2.8,0.9,4.2,0.9c0.5,0,1,0,1.4-0.1c1.3-0.2,2.6-0.5,3.8-0.8
			c0.3,0,0.6-0.1,0.9-0.2c0.6-0.1,1.3-0.3,1.9-0.3c1.8-0.2,3.2-0.1,4.6,0.2c0.8,0.2,1.5,0.3,2.2,0.5c0.7,0.1,1.4,0.3,2.2,0.5
			c0.9,0.2,1.6,0.3,2.5,0.3c1,0,2-0.2,2.9-0.3c1.1-0.2,2-0.6,3-1.3c0.5-0.3,0.8-0.6,1.1-0.9c0.1-0.1,0.1-0.2,0.2-0.3l0.1-0.1v-0.7
			h-0.5c-0.5,0.1-1.1,0.2-1.9,0.4c-0.8,0.2-1.6,0.3-2.5,0.4c-1.3,0.2-2.6,0.1-3.9-0.2l-6.7-1.7c-0.9-0.2-1.8-0.2-2.8,0
			c-0.7,0.1-1.4,0.3-2,0.4c-0.8,0.2-1.6,0.4-2.4,0.6c-0.8,0.2-1.6,0.4-2.5,0.6C195.3,317,193.6,317.1,191.8,316.7z"/>
		<path class="st0" d="M160.1,305.8c0.4,0.4,0.9,0.9,1.4,1.1c1.1,0.7,2.4,1.2,3.7,1.5c1.2,0.2,2.1,0.2,3,0.2
			c0.7-0.1,1.5-0.2,2.2-0.3c0.4-0.1,0.7-0.1,1.1-0.2c1.6-0.3,3.1-0.7,4.7-0.9c1.1-0.2,2.1-0.2,2.9-0.2c0.9,0.1,1.8,0.2,2.7,0.4
			c0.8,0.2,1.7,0.3,2.5,0.5c0.7,0.1,1.4,0.3,2.1,0.4c0.8,0.2,1.6,0.4,2.6,0.4c0.8,0,1.6-0.1,2.4-0.1h0.2c1.5-0.2,2.8-0.8,4.2-1.7
			c0.4-0.3,0.7-0.5,0.9-0.9c0.1-0.1,0.1-0.2,0.2-0.3l0.1-0.1v-0.4l-0.1-0.1c-0.1-0.1-0.2-0.2-0.4-0.2c-0.3,0-0.6,0-0.8,0.1
			c-1.1,0.3-2.2,0.6-3.3,0.7c-1.3,0.2-2.6,0.2-3.9,0l-0.7-0.1c-1.4-0.3-2.8-0.6-4.1-0.9c-1-0.3-2.3-0.6-3.7-0.9
			c-0.9-0.2-1.9-0.3-3-0.1c-0.9,0.2-1.8,0.3-2.8,0.6c-1.6,0.4-3.4,0.8-5.2,1.2c-1.9,0.5-3.9,0.5-5.8,0c-0.9-0.3-1.7-0.4-2.4-0.6
			c-0.3-0.1-0.6-0.1-0.8-0.1c-0.1,0-0.4,0-0.4,0.5v0.1C159.9,305.5,160,305.7,160.1,305.8z"/>
		<path class="st0" d="M214.8,306.3c0,0,0.1,0.1,0.1,0.2c0.3,0.4,0.8,0.8,1.2,1.1c0.6,0.3,1.2,0.7,1.9,0.9c1.2,0.5,2.5,0.8,3.9,0.8
			c0.4,0,0.8,0,1.2-0.1c0.2,0,0.5-0.1,0.8-0.1s0.5-0.1,0.8-0.1c0.8-0.2,1.6-0.4,2.4-0.5c0.8-0.2,1.6-0.4,2.4-0.5
			c1.8-0.5,3.9-0.5,5.9-0.2c0.9,0.2,1.8,0.4,2.7,0.5c0.4,0.1,0.9,0.1,1.3,0.2h0.2c0.9,0.1,1.8,0.3,2.8,0.3s1.8-0.1,2.7-0.3
			c1.1-0.2,2.4-0.8,3.7-1.5c0.5-0.3,0.9-0.7,1.4-1.3l0.1-0.1l0,0c0,0,0.1-0.1,0.1-0.2v-0.1c-0.1-0.1-0.2-0.3-0.4-0.3
			c-0.3,0-0.6,0-0.8,0.1c-1.3,0.4-2.6,0.7-3.9,0.9c-0.7,0.1-1.5,0.1-2.3,0c-1.1-0.2-2.3-0.3-3.4-0.6l-4.7-1c-1.8-0.4-3.4-0.3-5,0.2
			c-0.8,0.2-1.6,0.4-2.3,0.6s-1.5,0.4-2.4,0.6c-0.9,0.3-2,0.6-3,0.7c-1.1,0.2-2.1,0.2-3.1,0l-2.8-0.6c-0.3-0.1-0.7-0.2-1.1-0.2
			c-0.2,0-0.5,0.2-0.5,0.5L214.8,306.3L214.8,306.3z"/>
		<path class="st0" d="M166.8,227.2c1.4,2,3.6,3.2,6,3.1c1.7,0,3.3-0.6,4.7-1.6c1.8-1.2,2.8-3.2,2.8-5.4c0-1.1-0.2-2.2-0.7-3.1
			c-0.5-1.2-1.4-2.2-2.6-2.8c-1.2-0.6-2.5-0.8-3.8-0.6c-1.5,0.2-2.9,1.1-3.8,2.4c-0.1,0.2-0.3,0.3-0.4,0.5c-0.1,0.1-0.2,0.1-0.2,0.1
			c0-0.2,0-0.3,0-0.5c0.1-1.1,0.2-2.2,0.5-3.3c0.6-2.2,1.7-4.4,3.2-6.2c0.7-0.8,1.6-1.6,2.5-2.2l0.4-0.3l0.1-0.1
			c0.2-0.2,0.2-0.4,0-0.6c-0.1-0.1-0.2-0.1-0.2-0.1s-0.2,0-0.3,0.1c-2.4,1.1-4.5,2.6-6.2,4.6c-2.8,3.3-4.1,7.7-3.4,12
			C165.4,224.7,165.9,226.1,166.8,227.2z M169.3,222.7c0.2-0.9,0.5-1.8,1.1-2.6c0.2-0.4,0.6-0.8,0.9-1c1.2-0.8,2.8-0.8,3.8,0.2
			c0.5,0.4,0.9,1,1.2,1.7c0.3,0.8,0.5,1.6,0.5,2.4v0.4c0.1,0.9-0.2,1.9-0.4,2.6c-0.2,0.6-0.6,1.1-1.1,1.5c-0.6,0.5-1.2,0.8-2,0.8
			c-0.8,0.1-1.6-0.2-2.2-0.8c-0.3-0.2-0.6-0.6-0.8-0.9c-0.6-0.8-1-1.8-1.1-2.9C169.2,223.7,169.2,223.2,169.3,222.7z"/>
		<path class="st0" d="M152.6,212.3c0.1,0,0.2-0.1,0.3-0.1l2.1-0.7l0.5-0.2c0.1-0.1,0.2,0.1,0.2,0.2c0.1,0.3,0.1,0.6,0.1,0.9
			c0,2.6,0,5.2,0,7.8c0,2.4,0,4.8,0,7.2c0,0.1,0,0.2,0,0.4c0,0.5-0.2,1-0.6,1.4c0,0.1-0.1,0.1-0.1,0.2c0,0.2,0.2,0.2,0.2,0.2h4.5
			c0.2,0,0.2-0.1,0.2-0.2s-0.1-0.2-0.2-0.2c-0.3-0.3-0.4-0.8-0.4-1.2c0-0.1,0-0.2,0-0.2c0-2.4-0.1-4.8-0.1-7.2c0-1,0-2,0-3
			c0.1-2.2,0.1-4.2,0.1-6.4c0-1.3,0-2.8,0-4.1c0-0.1-0.1-0.2-0.1-0.4c0-0.1-0.2-0.2-0.2-0.1c-0.2,0.2-0.4,0.4-0.7,0.6
			c-0.7,0.5-1.2,1.2-1.9,1.7c-0.8,0.6-1.7,1.2-2.5,1.8c-0.5,0.3-0.9,0.7-1.4,1c-0.1,0.1-0.2,0.2-0.2,0.2
			C152.4,212.1,152.5,212.3,152.6,212.3z"/>
		<path class="st0" d="M245.7,218.9c0,0,0.3,0.1,0.5-0.1l0.4-0.4c0.8-0.8,1.7-1.2,2.8-1.5c0.8-0.2,1.6-0.2,2.4,0
			c1.6,0.2,2.8,1.4,3.3,2.9c0.2,0.4,0.2,0.9,0.2,1.4c0.1,0.8,0,1.7-0.2,2.5c-0.5,2.6-2.4,4.7-4.9,5.4c-1.1,0.3-2.2,0.4-3.3,0.2
			l-0.5-0.1c-0.1,0.1-0.2,0.2-0.2,0.2c0.1,0.2,0.1,0.3,0.2,0.6l0.2,0.2c0.1,0,0.2,0.1,0.3,0.1c1.4,0.2,2.8,0.2,4.1-0.2
			c2.9-0.6,5.4-2.5,6.8-5.2c1.1-2,1.3-4.3,0.6-6.5c-0.4-1.3-1.3-2.5-2.6-3.2c-1.7-1-3.8-1.2-5.7-0.7c-1,0.2-1.9,0.8-2.8,1.4
			c-0.2,0.2-0.4,0.3-0.6,0.5l-0.2,0.2c-0.1,0.1-0.4,0.2-0.3-0.2c0.1-1.3,0.2-3.8,0.3-5.2c0-0.2,0-0.4,0.1-0.5
			c0.1-0.2,0.2-0.3,0.4-0.3c0,0,8.6,0,8.8,0c0.1,0,0.3-0.1,0.3-0.5c0.2-0.9,0.3-1.8,0.6-2.6v-0.1c0.1-0.3-0.1-0.4-0.3-0.4
			c-0.7,0.2-1.3,0.2-2,0.2c-2.4,0-4.9,0-7.3,0c-1.3,0-1.2,0-1.3,1.2c-0.2,1.1-0.2,2.1-0.2,3.2l-0.3,5.4c0,0.6-0.1,0.8-0.1,1.2
			C245.3,218.7,245.4,218.8,245.7,218.9z"/>
		<path class="st0" d="M228.7,210.9c0.1,0.2,0.2,0.2,0.3,0.1l0.9-0.8c0.6-0.4,1.2-0.8,1.8-1c1.2-0.4,2.3-0.5,3.5-0.2
			c1.1,0.2,1.9,1.2,2,2.3c0.2,1.2-0.1,2.5-0.9,3.4c-0.3,0.4-0.7,0.8-1.1,1c-0.7,0.5-1.3,0.8-2.1,1.2l-1,0.4
			c-0.2,0.1-0.2,0.2-0.2,0.4c0.1,0.1,0.1,0.2,0.2,0.3c0.1,0.2,0.3,0.2,0.5,0.2c0.3-0.2,0.7-0.2,1-0.3c0.8-0.2,1.4-0.2,2.2,0
			c1.3,0.2,2.5,1.1,3,2.3c0.2,0.4,0.2,0.9,0.3,1.3c0.1,0.7,0.1,1.4,0,2.1c-0.2,1.8-1.2,3.3-2.7,4.2c-0.5,0.3-1.1,0.6-1.7,0.8
			c-1.5,0.4-3.2,0.5-4.8,0.2l-1-0.2c-0.1,0-0.1,0.1-0.1,0.2c0,0.2,0,0.3,0,0.5s0.1,0.4,0.3,0.4c0.4,0.1,0.8,0.2,1.2,0.2
			c1.6,0.2,3.2,0,4.8-0.4c1.3-0.4,2.7-1,3.8-1.8c1-0.8,1.9-1.6,2.6-2.7c1.2-1.8,1.4-4,0.7-6c-0.3-1.2-1.2-2.2-2.2-2.8
			c-0.5-0.3-1.2-0.5-1.8-0.7c-0.4-0.1-0.9-0.2-1.3-0.3l-0.1-0.1V215l0.8-0.5c0.7-0.4,1.2-1,1.7-1.6c0.8-1,1.1-2.2,0.9-3.5
			c-0.1-0.9-0.6-1.8-1.3-2.2c-0.4-0.2-0.8-0.5-1.3-0.7c-1.3-0.4-2.8-0.5-4.2-0.1c-2,0.5-3.8,1.8-5,3.4
			C228.5,210.5,228.5,210.7,228.7,210.9z"/>
		<path class="st0" d="M143.8,156.5v129.8c0,19.2,15.7,33.8,26.2,38.8c14.2,6.7,20,9.3,29.7,13.5l4.5,2c0.4,0.2,0.9,0.2,1.4,0
			l3.3-1.5c11.6-5.1,15.2-6.7,30.7-14c7.6-3.6,18-12.2,23.1-24.2c2-4.5,3.1-9.5,3.1-14.9V156.2c0-0.5-0.4-0.8-0.8-0.8H144.6
			C144.1,155.4,143.8,155.7,143.8,156.5z M262.7,244v4.6v6.6v0.6c-0.1,0.1-0.2,0.2-0.2,0.3c-0.7,0.4-2.6,1.8-3.3,2.2l-11.3,7.6
			l-0.5,0.3c-0.2,0.1-0.2,0.1-0.4-0.1s-0.3-0.6-0.4-0.9c-0.4-1-0.5-1.4-1-2.2c-1.5-2.7-3.3-4.9-6-6.4c-0.5-0.3-0.8-0.3,0.2-1.4
			l12.4-12h3.1l0,0h3h4c0.3,0,0.6,0.3,0.6,0.6L262.7,244L262.7,244z M224.8,290.3c-0.3-0.2-0.6-0.3-0.9-0.2c-0.4,0-0.7,0.1-1,0.3
			l-2.6,1.4l-4.6,2.3c-1.1,0.5-2.2,0.7-3.4,0.8l-1.2-0.1c-0.1,0-0.2-0.1-0.2-0.1c-0.1-0.3,0.2-0.4,0.2-0.4c1.7-1,3.3-2,5-2.9
			c0.8-0.5,1.7-1,2.5-1.6c0.8-0.5,1.4-1.1,2.1-1.6c0.4-0.4,0.8-0.8,1-1.2c0.1-0.2,0.1-0.4-0.1-0.5c-0.3-0.3-0.8-0.4-1.1-0.2
			c-0.4,0.3-0.8,0.5-1.3,0.7l-8.5,5.5c-0.5,0.3-1.1,0.6-1.6,1c-1.1,0.5-3.3,1-4,0.5c-0.2-0.2,0.1-0.4,0.3-0.5
			c0.9-0.4,1.7-0.9,2.5-1.3c1.2-0.7,1.8-1.3,2.5-1.8c0.9-0.6,1.7-1.3,2.5-2c1.5-1.3,2.8-2.7,3.9-4.3c0.3-0.4,0.4-0.7,0.7-1
			c0.1-0.2,0.2-0.5,0-0.6c-0.3-0.2-0.6-0.2-1,0c-0.4,0.3-0.8,0.6-1.2,0.9l-5.5,4.8c-0.3,0.3-0.7,0.5-1,0.8c-0.8,0.7-2,1.4-2.9,1.8
			l-3.7,1.8c-1.6,0.7-2.3,1-2.7,1.1s-1.2,0.2-1.7,0.1c-0.2,0-0.4-0.1-0.6-0.1c0,0-0.1-0.2,0-0.3c0.1-0.2,0.2-0.3,0.3-0.4
			c0.7-0.5,1.3-1,2-1.5c1.8-1.2,3.6-2.5,5.3-4c3.5-2.8,6.6-5.9,9.5-9.1c0.6-0.8,0.6-0.8,1.3-1.5c0.7-0.9,1.8-2.3,1.8-2.3
			c0.7-0.9-0.1-1.6-0.9-1.5c-0.2,0-3.2,0.9-4.8,1.5c-1.9,0.8-3.3,2.2-5.5,3.6c-0.6,0.4-2.2,1.4-2.9,1.7c-2.3,0.9-3.9-0.3-2.8-1.2
			c0,0,2.8-2.4,3.8-3.3c1.6-1.2,5.7-5.5,9.8-8.5c1.3-0.9,1.8-1.1,3.2-1.3c6.9-0.9,12.6-2.8,15.6-4.9c0.8-0.5,1.5-1,2.1-1.6
			c0.3-0.3,0.7-0.6,1-0.9c0.2-0.2,0.5-0.2,0.8-0.1s0.6,0.2,0.7,0.3c2,1,3.6,2.3,4.9,4.1c0.9,1.2,1.7,2.7,2.2,4.1
			c0.1,0.2,0.2,0.4,0.2,0.6c0.3,1,0.3,1-0.5,1.5c-3,2.2-5.6,5-7.6,8.2c-0.9,1.5-1.8,3.1-2.8,4.6l-3.9,6.3l-1,1.6
			c-0.9,1.5-2.1,2.8-3.7,3.5c-1.1,0.5-1.8,1-2.9,1.3c-0.7,0.2-1.5,0.5-2.2,0.7c-0.4,0.1-1.9,0.5-2.1,0c-0.1-0.2,0.3-0.4,0.5-0.5
			c1.3-0.6,2.7-1.6,4-2.2c1-0.5,1.4-0.8,2-1.3C224.9,291,225.1,290.5,224.8,290.3z M189.3,290.1l-5.1-29.2l38.8-6.8
			c0.2,0,0.3,0.1,0.4,0.3l1.5,7.1c-0.6,0.1-1.1,0.3-1.5,0.3c-1.6,0.3-6.7,1.1-7.5,1.2c-1.6,0.4-2.2,0.9-2.8,1.2
			c-2,1.2-5.7,4.7-7.5,6.1c-0.6,0.5-1.8,1.8-2.3,2.3c-1.9,1.7-4.8,4.4-5.2,4.9c-1,1.4-0.3,2.7,0.8,3.8s3.1,0.9,3.4,0.9
			c0.8-0.1,1.5-0.2,2.3-0.6c1.1-0.5,5.9-3.7,7.1-4.5l0.7-0.4c0.3-0.2,0.4,0,0.2,0.2s-0.4,0.5-0.4,0.5l-0.4,0.5c-1.4,1.6-3,3-4.6,4.4
			c-2.4,2.3-5.1,4.4-7.9,6.3c-0.9,0.7-1.8,1.3-2.7,2l-7.5,1.4C189.3,291.6,189.4,290.8,189.3,290.1z M186.2,292
			c-0.3,0.4-0.8,0.7-1.3,0.8h-0.3c-1.1,0.2-2.1-0.5-2.3-1.6l-4.6-26.9c0.4,0.2,0.7,0.3,1.1,0.3c0.3,0,0.5,0,0.8,0
			c0.9-0.1,1.7-0.4,2.3-1.1l4.6,27C186.6,291.1,186.4,291.6,186.2,292z M197.2,220.4c1.3,0.6,3.2,0.9,4.8,0c0.9-0.4,1.4-1.1,1.4-2
			c0-0.4-0.2-0.8-0.6-1l-0.9-0.4c-0.3-0.1-0.5-0.6-0.4-1c0-0.2,0.2-0.7,0.3-0.9c0.6-1.5,1.6-2.8,2.9-3.7l0.1-0.1l2.8,3.4
			c0.2,0.4,0.2,0.8,0.3,1.2c0.1,0.6-0.1,1-0.4,1.1c-0.1,0-0.1,0.1-0.2,0.1c-0.1,0-0.6,0.2-0.6,0.3c-0.6,0.3-0.7,0.8-0.5,1.4
			c0.2,0.6,0.6,1.1,1.1,1.5c1.7,1,3.6,0.7,5.1,0c0.2-0.1,0.5-0.3,0.7-0.5c0.4-0.4,0.6-0.8,0.6-1.3c0-0.2,0-0.4-0.1-0.5
			c0-0.1,0-0.2,0-0.3c0-0.4,0.1-0.8,0.3-1.1c0.2-0.6,0.6-1.1,1.3-1.4c0.7-0.4,1.6-0.5,2.5-0.3c0.1,0,0.1,0,0.2,0l-0.1,0.1
			c-0.6,0.2-1,0.7-1.4,1.4c-0.1,0.2-0.2,0.3-0.3,0.4c-0.1,0.1-0.1,0.3-0.2,0.4c-0.4,0.9-0.7,2-0.8,3c0,0.6-0.1,1.4-0.1,2.1l-0.5-0.1
			c-2.4-0.1-4.3-0.2-6.4-0.2c-1.3,0-2.6-0.1-3.8-0.1h-0.2l-6,0.2c0,0-2.7,0.1-3.1,0.1c-0.3,0-0.4-0.2-0.4-0.3
			c-0.1-0.4-0.1-0.8-0.1-1.2c-0.1-0.8-0.3-1.5-0.4-2.3l-0.1-0.3c-0.1-0.4-0.3-0.9-0.5-1.3c-0.3-0.8-0.9-1.6-1.7-1.9
			c0.8-0.1,1.6-0.1,2.3,0.2c0.9,0.4,1.9,1.3,1.9,2.1s-0.1,0.7-0.1,1.3C195.9,219.5,196.9,220.2,197.2,220.4z M215,225.5
			c0,0.6-0.1,0.7-0.6,0.7s-2.4-0.2-3.3-0.3c-4.5-0.3-6.8-0.3-9.8-0.2c-3.5,0.1-5.5,0.4-5.5,0.4h-0.7c-0.2,0-0.3-0.4-0.3-0.7
			s0-0.6,0-0.9c0-0.1,0.1-0.2,0.3-0.2s3.4-0.2,3.4-0.2c0.5,0,1-0.1,1.5-0.1c1-0.1,1.4-0.1,3.4-0.2c3.1,0,6.2,0,7.7,0.1
			c1.6,0.1,3.5,0.3,3.5,0.3c0.3,0,0.4,0.1,0.4,0.1C214.9,224.5,215,225.3,215,225.5z M204.9,228.2c14.6,0,19.3,4,23.1,6.9
			c0.7,0.6,1.3,1.2,2,1.7c0.4,0.3,0.7,0.4,1.3,0.2c6.3-2.1,14.1-0.5,18,3.1c-16.2,0-71.8,0-88.8,0c4.2-3.6,12-5.3,18.3-3.2
			c0.6,0.2,0.9,0.1,1.3-0.2c0.7-0.5,1.3-1.2,2-1.7C185.8,232.3,190.2,228.2,204.9,228.2z M211.9,162.5c0-1,0.2-1.9,0.5-2.8
			c0.1-0.1,0.1-0.2,0.1-0.3s0.1-0.2,0.1-0.3V159c0.1-0.2,0.2-0.5,0.3-0.5h48.4c0.7,0,1.3,0.6,1.3,1.3v79.8c0,0.5-0.1,0.6-0.9,0.6h-8
			c0,0-0.2,0-0.4,0c-4.9-5.6-13.7-8.4-21.8-6.1c-0.2,0.1-0.5,0-0.7-0.2c-0.3-0.3-0.6-0.6-1-0.9c-3-2.4-6.2-4.9-12.5-6.4
			c0-0.2,0-0.4,0-0.5v-4.8c0-1,0.2-2.1,0.5-3c0.1-0.4,0.2-0.8,0.4-1.1c0.1-0.1,0.1-0.1,0.2-0.2c0-0.1,0.1-0.1,0.1-0.1
			c0.1-0.1,0.3-0.1,0.4-0.1l0.5,0.2c0.2,0.2,0.4,0.2,0.6,0.3c0.2,0.1,0.4,0.1,0.6,0.1c0.7,0,1.1-0.5,1.1-1.1c0-0.5,0-1-0.2-1.5
			c-0.4-1.2-1.2-2.2-2.3-2.6c-1.3-0.6-2.9-0.6-4.4-0.2c-1.3,0.4-2.4,1.3-3,2.4c-0.1,0.1,0,0.2-0.1,0.4v-10.9c0.1,0,10.6,0,10.6,0
			c1.8,0,3.1,0.8,4.3,1.5c0.3,0.3,0.7,0.5,1,0.7c0.1,0.1,0.6,0.4,0.8,0.4s0.3-0.1,0.4-0.2c0.2-0.2,0.2-0.4,0.2-0.5V205
			c0.1-4.7,0-12.8,0-15.9V189c-0.1-0.2-0.3-0.3-0.4-0.4c-0.1,0-0.3-0.1-0.5,0.1c0,0-1.1,0.8-1.2,0.9c-1.2,0.8-2.5,1.2-3.9,1.3
			c-0.8,0.1-1.7,0.1-2.5,0.1h-6.7c-0.3,0-1.3,0-1.6-0.1c-0.3,0-0.3-0.4-0.3-0.7v-6.3c0-0.4,0.1-0.4,0.4-0.4s5.6,0,5.6,0
			c1.4,0,2.9,0.4,4.1,1.1c0.4,0.3,0.8,0.4,1.3,0.7l0.3,0.2l0.2,0.1c0.2,0.1,0.6-0.1,0.6-0.4c0.1-0.2,0.1-0.7,0.1-0.9v-14.6v-0.8
			c0-0.4-0.3-0.5-0.5-0.5c-0.1,0-0.4,0.1-0.4,0.1c-0.4,0.2-0.9,0.4-1.3,0.7c-1.1,0.7-2.4,0.9-3.7,1c-1.2,0.1-2.5,0.1-3.7,0.1
			c0,0-1.9,0-2.3,0s-0.4-0.2-0.4-0.5L211.9,162.5L211.9,162.5z M200.2,158.9c0,0-0.1-0.2-0.1-0.4l9.5,0.1c0,0.2-0.1,0.4-0.1,0.6
			c-0.3,1.2-0.5,2.5-0.5,4.5c0,0,0,8.3,0,8.4c0,0.2,0,0.4,0.2,0.6c0.2,0.2,0.5,0.2,1.1,0.2h6.7c0.8,0.1,1.6,0,2.6-0.2
			c0.5-0.1,0.9-0.2,1.4-0.3c0.1,0,0.2,0,0.3-0.1c0.1,0,0.1,0,0.2,0l0,0v9c-0.1,0-0.1,0-0.2,0c-0.1,0-0.2,0-0.3-0.1
			c-1.1-0.3-2.2-0.5-3.4-0.5h-7.4H210c-0.9,0.1-1,0.2-1,1.3v10.9c0,0.3,0.3,0.6,0.6,0.6h6.9l5.7-0.1c1.1,0.1,2.2-0.1,3.4-0.4
			c0.2-0.1,0.3-0.1,0.5-0.1c0.2-0.1,0.2,0,0.2,0.1s0,0.3,0,0.5v8.4c0,0.1-0.1,0.1-0.1,0.1c-0.1,0-0.1,0-0.2-0.1h-0.1
			c-1.1-0.3-2.3-0.5-3.5-0.5h-11.7c-0.2,0-0.4,0-0.7,0c-0.6,0-0.9,0.4-0.9,0.6c0,0.3,0,0.6,0,0.9v9.6c0,0-0.1-0.6-0.4-1.1
			c-0.3-0.6-1.6-1.9-2.6-2.5c-0.6-0.5-1.6-0.5-2.2,0c-0.9,0.6-1.6,1.2-2.5,2.3c-0.1,0.2-0.6,0.9-0.6,1.3v-10.6
			c0-0.3-0.4-0.5-0.6-0.5h-11.9c-0.8,0-1.4,0-2.2,0.1c-0.8,0-1.5,0.1-2.4,0.4c-0.1,0-0.2,0.1-0.2-0.1v-8.9c0.1,0,0.1,0,0.2,0.1
			c0.1,0,0.2,0,0.3,0.1c0.5,0.1,1,0.2,1.4,0.3h0.2c0.4,0.1,0.9,0.2,1.5,0.2h12.1c0.2,0,0.4,0,0.6-0.1c0.2,0,0.4,0,0.5,0
			c0.3,0,0.6-0.3,0.6-0.6v-11.4c0-0.2-0.2-0.4-0.4-0.5s-0.3-0.1-0.4-0.1h-7.5c-1.6,0-3.1,0.3-4.1,0.6l-0.4,0.1l0,0v-9.1l0.5,0.1
			c1.1,0.3,2.2,0.5,3.3,0.5h7.4c0.4,0,0.7,0,1.1-0.1c0.2-0.1,0.5-0.2,0.5-0.6v-8.8C200.8,162,200.6,160.5,200.2,158.9z M146.9,159.8
			c0-0.7,0.6-1.3,1.3-1.3h48.4c0,0,0.2,0.2,0.2,0.3s0.1,0.2,0.2,0.4c0.4,0.9,0.6,1.8,0.6,2.6c0.1,0.7,0.1,1.5,0.1,2.2v5.9
			c0,0.4-0.1,0.6-0.4,0.6h-4.9c-0.8,0-1.4-0.1-2.1-0.2c-1.1-0.2-2-0.6-2.9-1.2c-0.2-0.1-0.4-0.2-0.6-0.4c-0.2-0.1-0.4-0.3-0.5-0.3
			c-0.2-0.2-0.4-0.2-0.5-0.2c-0.3,0-0.4,0.1-0.4,0.2c-0.1,0.2-0.1,0.4-0.1,0.5c0,0,0,16,0,16.1s0,0.1,0,0.1c0.1,0.4,0.6,0.4,0.8,0.3
			c0,0,0.3-0.1,0.4-0.2l1.4-0.7c1.2-0.7,2.5-0.9,3.8-0.9h6c0.2,0,0.4,0,0.4,0.2c0.1,1.9,0.1,6.1,0.1,7.1c0,0.1-0.1,0.3-0.3,0.3
			h-10.7c-1.3,0-2.6-0.4-3.8-1.1l-1.7-1c-0.1,0-0.2-0.1-0.3-0.1c-0.4,0-0.6,0.3-0.6,0.5v16.1c0,0.3,0.4,0.5,0.6,0.5
			c0.1,0,0.3,0,0.5-0.1c0.5-0.2,1-0.5,1.5-0.8c1.3-0.7,2.6-1.1,3.9-1.1h10.1h0.8v11.4c0,0,0,0,0-0.1c-0.1-0.1-0.1-0.2-0.2-0.4
			c-0.7-1.6-2.2-2.6-4-2.9c-1.1-0.2-2.3-0.1-3.3,0.3c-1.3,0.4-2.3,1.4-2.7,2.7c-0.2,0.7-0.2,1.4-0.2,1.7l0.1,0.4
			c0.1,0.3,0.3,0.4,0.6,0.6c0.3,0.1,0.6,0.1,0.9,0c0.1,0,0.2-0.1,0.3-0.1s0.2-0.1,0.3-0.1c0.2-0.1,0.3-0.1,0.4-0.2
			c0.1-0.1,0.2-0.1,0.2-0.1c0.3-0.1,0.4,0,0.5,0.2c0.2,0.2,0.4,0.5,0.5,0.8c0.2,0.5,0.5,1.2,0.6,1.9c0.1,0.5,0.2,1,0.2,1.4
			c0,0,0,5.3,0,5.4v0.1c-6.2,1.6-9.1,4.1-11.8,6.3c-0.3,0.2-0.5,0.4-0.7,0.7c-0.4,0.3-0.8,0.4-1.3,0.3c-8-2.2-16.9,0.7-21.8,6.2
			h-8.1c-1.3,0-1.4-0.3-1.4-1.4L146.9,159.8L146.9,159.8z M146.9,244.3c0-0.7,0.1-1,0.8-1h96l0,0h4.4c-3.9,3.9-10.4,10.2-11.5,11.2
			c-2.2,1.9-4.5,3.7-6.9,5.1c-0.6,0.3-1.1,0.6-1.8,0.9l-1.3-6.2c-0.3-1.9-2.1-3.2-4.1-2.8l-40.1,6.9l0,0c-0.8,0.1-1.3,0.7-1.4,1.5
			c0,1.7-1.1,2.1-2,2.2c-0.3,0-1.6,0.4-2.1-1.4c-0.3-0.8-1-1.4-1.8-1.1c-0.7,0.2-1.1,0.9-1.1,1.6l0,0v0.1c0,0.1,0,0.1,0,0.2
			l5.2,29.9c0.4,2.5,2.4,4.3,4.9,4.3c0.3,0,0.6,0,0.9-0.1h0.3c0.1,0,0.4-0.1,0.4-0.1l8.6-1.6c0.1,0.7,0.5,1.2,0.5,1.2
			c0.8,0.6,1.7,1,2.7,1c0.7,0,1.5,0,2.2-0.3l0.7-0.2c0.4-0.1,0.9-0.1,1.3,0l0.4,0.1c1,0.4,2,0.7,3,0.6l1.2-0.1c0.4,0,0.9,0,1.3,0.2
			c1,0.4,2.1,0.7,3.2,0.7c0.8,0,1.7-0.1,2.5-0.2c0.8-0.2,1.7-0.2,2.5-0.1c1.9,0.1,4,0.4,5.9,0.1c0.9-0.2,1.7-0.4,2.6-0.7l2.6-0.9
			c0.4-0.1,0.8-0.3,1.2-0.5c1.4-0.8,2.7-2.4,3.6-3.8l0.5-0.8c2.4-4,4.6-7.9,6.9-11.9c1.1-1.7,2.3-3.2,3.7-4.6s2.9-2.7,4.5-3.7
			l14.7-10.4c0.2-0.2,0.5-0.3,0.7-0.5v2.9v4.9v18.9c0,18.1-14.6,31.6-24.4,36.2c-15.4,7.3-20.8,9.6-32.4,14.7l-0.5,0.2
			c-0.3,0.1-0.7,0.1-1,0l-3.4-1.5c-9.7-4.2-15.5-6.8-29.6-13.5c-9.8-4.6-24.4-18.1-24.4-36.2L146.9,244.3L146.9,244.3z"/>
	</g>
</g>
</svg>
